<?xml version="1.0" standalone="no"?>
<!DOCTYPE svg PUBLIC "-//W3C//DTD SVG 20010904//EN"
 "http://www.w3.org/TR/2001/REC-SVG-20010904/DTD/svg10.dtd">
<svg version="1.0" xmlns="http://www.w3.org/2000/svg"
 width="1506.000000pt" height="1506.000000pt" viewBox="0 0 1506.000000 1506.000000"
 preserveAspectRatio="xMidYMid meet">
<metadata>
Created by potrace 1.14, written by Peter Selinger 2001-2017
</metadata>
<g transform="translate(0.000000,1506.000000) scale(0.100000,-0.100000)"
fill="#000000" stroke="none">
<path d="M7861 14271 c-21 -44 -37 -82 -33 -85 3 -3 0 -6 -7 -6 -7 0 -10 -4
-7 -9 4 -5 2 -11 -2 -13 -10 -4 -86 -159 -84 -170 1 -5 -2 -8 -7 -8 -7 0 -21
-33 -20 -48 0 -12 -38 -36 -59 -38 -15 -1 -88 -11 -162 -22 -149 -23 -209 -29
-380 -37 -149 -8 -228 -13 -277 -19 -22 -3 -68 -8 -102 -11 -34 -2 -66 -7 -71
-10 -16 -10 -177 -13 -235 -4 -33 5 -76 12 -95 14 -94 14 -99 16 -112 51 -6
19 -16 34 -22 34 -5 0 -6 3 -3 6 4 4 -1 19 -11 33 -10 14 -31 55 -47 91 -17
36 -34 68 -38 71 -5 3 -8 9 -8 13 1 10 -33 81 -41 84 -5 2 -8 12 -8 23 0 10
-5 19 -11 19 -5 0 -7 5 -4 10 3 6 1 10 -5 10 -6 0 -8 5 -4 11 4 7 2 10 -5 8
-7 -3 -13 -9 -13 -14 0 -6 -9 -21 -19 -34 -10 -13 -16 -27 -13 -32 3 -5 0 -9
-7 -9 -7 0 -9 -3 -6 -7 4 -3 1 -13 -7 -22 -8 -9 -15 -19 -16 -23 -1 -11 -39
-90 -50 -108 -6 -8 -14 -26 -20 -40 -5 -14 -14 -32 -19 -40 -5 -8 -19 -35 -31
-60 -29 -57 -34 -62 -62 -65 -13 -2 -36 -6 -53 -9 -16 -2 -50 -8 -75 -11 -25
-3 -56 -8 -70 -10 -14 -2 -45 -6 -70 -10 -125 -16 -190 -29 -190 -37 0 -5 40
-50 90 -100 49 -50 87 -94 85 -98 -5 -8 -96 -36 -107 -32 -5 1 -8 -2 -8 -8 0
-6 -3 -9 -7 -8 -5 0 -15 -1 -23 -4 -93 -34 -116 -43 -120 -44 -3 0 -13 -4 -22
-7 -28 -11 -42 -15 -49 -13 -3 0 -13 -5 -22 -13 -10 -7 -17 -10 -17 -5 0 5 -4
3 -8 -3 -4 -7 -17 -14 -27 -16 -11 -2 -36 -10 -55 -19 -19 -8 -63 -28 -98 -42
-34 -15 -84 -37 -110 -49 -26 -12 -49 -21 -52 -22 -3 0 -37 -17 -76 -37 -39
-21 -74 -34 -78 -31 -3 4 -6 1 -6 -6 0 -7 -4 -9 -10 -6 -5 3 -10 2 -10 -4 0
-5 -10 -13 -21 -16 -28 -9 -98 -13 -96 -6 3 13 -218 449 -225 445 -8 -5 -141
-275 -140 -284 0 -3 -6 -12 -14 -21 -8 -9 -11 -19 -7 -22 3 -4 1 -7 -6 -7 -7
0 -9 -4 -6 -10 3 -5 2 -10 -2 -10 -9 0 -48 -80 -45 -93 2 -5 -1 -6 -5 -4 -5 3
-48 -1 -98 -9 -89 -14 -116 -18 -205 -30 -48 -6 -66 -9 -139 -21 -25 -4 -50
-6 -56 -4 -17 5 27 -42 244 -254 44 -43 81 -82 81 -85 0 -4 -12 -13 -27 -21
-28 -14 -53 -33 -79 -57 -8 -7 -14 -10 -14 -6 0 4 -7 -1 -15 -12 -8 -10 -15
-15 -15 -10 0 5 -9 -1 -20 -14 -11 -13 -20 -20 -20 -17 0 4 -9 -1 -19 -10 -35
-32 -51 -44 -51 -38 0 3 -8 -3 -18 -12 -32 -30 -62 -53 -70 -53 -4 0 -13 -9
-20 -20 -7 -11 -17 -20 -22 -20 -6 0 -18 -8 -28 -17 -10 -10 -33 -29 -51 -43
-19 -14 -47 -36 -62 -50 -49 -44 -84 -74 -133 -115 -26 -22 -66 -57 -89 -78
l-42 -38 -17 21 c-10 12 -18 30 -18 41 0 10 -5 21 -11 25 -11 6 -42 71 -37 76
2 2 -6 17 -17 33 -12 17 -32 55 -45 85 -13 30 -32 67 -42 82 -10 14 -18 32
-18 38 0 20 -30 -9 -30 -29 0 -9 -7 -25 -15 -35 -8 -10 -12 -23 -9 -27 3 -5 1
-9 -5 -9 -9 0 -27 -40 -22 -49 2 -2 -1 -7 -6 -10 -11 -7 -83 -156 -83 -171 0
-5 -4 -10 -9 -10 -8 0 -24 -37 -22 -52 1 -5 -4 -8 -9 -8 -6 0 -10 -6 -10 -14
0 -22 -24 -36 -71 -41 -24 -3 -55 -7 -69 -9 -14 -2 -47 -7 -75 -11 -27 -3 -93
-13 -145 -20 -52 -8 -105 -16 -117 -18 -12 -2 -25 -6 -29 -9 -5 -6 91 -104
284 -290 39 -37 69 -68 67 -70 -1 -2 -5 -23 -9 -48 -14 -105 -33 -151 -85
-199 -14 -13 -19 -20 -11 -16 8 4 -2 -10 -23 -31 -20 -22 -37 -43 -37 -47 0
-8 -37 -53 -62 -75 -9 -9 -15 -19 -12 -24 3 -4 1 -8 -3 -8 -5 0 -17 -15 -27
-34 -10 -19 -25 -37 -32 -40 -8 -3 -14 -12 -14 -20 0 -7 -7 -16 -15 -20 -8 -3
-14 -9 -13 -13 3 -10 -60 -103 -81 -121 -11 -9 -11 -11 -2 -6 9 5 12 3 7 -4
-4 -7 -11 -12 -16 -12 -10 0 -43 56 -38 64 2 2 -5 13 -15 23 -9 11 -15 22 -13
24 3 2 -3 15 -13 27 l-17 24 -49 -99 c-27 -54 -48 -101 -47 -105 1 -5 -3 -8
-9 -8 -5 0 -8 -4 -5 -9 4 -5 3 -11 -1 -13 -5 -1 -32 -51 -61 -110 -39 -80 -59
-109 -75 -113 -32 -6 -219 -34 -274 -41 -27 -3 -59 -7 -73 -10 -14 -3 -41 -7
-60 -9 -73 -10 -82 -14 -66 -30 8 -8 17 -15 19 -15 14 0 336 -332 332 -342 -2
-7 -6 -30 -9 -50 -10 -65 -24 -122 -42 -163 -10 -22 -18 -42 -19 -45 -1 -3 -8
-18 -15 -35 -7 -16 -13 -33 -12 -37 1 -5 -3 -8 -9 -8 -5 0 -8 -4 -4 -9 3 -5 1
-12 -5 -16 -6 -4 -8 -11 -5 -16 4 -5 1 -9 -4 -9 -6 0 -10 -3 -9 -7 1 -5 -4
-24 -11 -43 -8 -19 -15 -37 -15 -40 -1 -3 -7 -15 -14 -27 -7 -13 -10 -23 -7
-23 3 0 0 -10 -7 -22 -6 -13 -13 -29 -14 -36 -1 -8 -6 -21 -10 -30 -4 -9 -8
-20 -9 -24 -2 -5 -3 -9 -5 -10 -1 -2 -3 -10 -5 -18 -2 -8 -17 -53 -34 -100
-31 -91 -62 -189 -65 -205 -1 -5 -5 -16 -9 -22 -5 -7 -6 -13 -2 -13 3 0 1 -9
-5 -19 -5 -11 -13 -37 -16 -58 -3 -21 -9 -42 -14 -48 -4 -5 -10 -23 -13 -40
-3 -16 -8 -41 -12 -55 -6 -26 -12 -52 -19 -85 -2 -11 -9 -38 -15 -60 -5 -22
-13 -53 -15 -70 -3 -16 -8 -39 -10 -50 -19 -87 -53 -273 -61 -331 -3 -22 -7
-50 -10 -63 -2 -13 -7 -49 -10 -80 -3 -31 -8 -65 -10 -76 -2 -11 -7 -54 -10
-95 -4 -41 -8 -88 -10 -105 -26 -234 -27 -989 -1 -1145 2 -14 7 -59 10 -100 3
-41 8 -86 11 -99 2 -13 7 -49 10 -79 3 -30 8 -69 11 -86 6 -36 11 -64 19 -121
7 -53 13 -81 19 -103 3 -9 7 -33 10 -52 7 -41 15 -85 22 -120 3 -14 7 -34 9
-45 2 -11 4 -20 5 -20 1 0 4 -11 6 -25 3 -14 9 -43 15 -65 11 -38 13 -50 24
-96 2 -11 7 -29 10 -39 3 -10 7 -27 9 -37 2 -10 10 -38 17 -63 7 -25 13 -47
14 -50 1 -3 7 -25 15 -50 7 -25 14 -50 16 -56 2 -12 42 -139 52 -164 3 -8 6
-17 6 -20 1 -3 5 -11 9 -17 5 -7 6 -13 2 -13 -3 0 -1 -9 5 -21 6 -11 13 -28
15 -37 2 -9 13 -42 25 -72 12 -30 30 -77 39 -105 26 -72 59 -152 112 -270 12
-28 22 -53 21 -57 -1 -5 3 -8 10 -8 6 0 8 -3 5 -7 -4 -3 0 -17 8 -30 9 -13 13
-23 10 -23 -3 0 6 -18 20 -40 14 -22 22 -40 19 -40 -4 0 0 -8 9 -18 10 -10 14
-22 10 -25 -3 -4 -1 -7 6 -7 7 0 9 -4 6 -10 -3 -5 -1 -10 4 -10 6 0 10 -3 9
-7 -1 -5 18 -46 42 -93 24 -47 44 -88 44 -92 1 -4 9 -17 19 -28 9 -11 17 -27
17 -35 0 -8 5 -15 12 -15 6 0 8 -3 5 -7 -4 -3 4 -21 18 -38 13 -18 21 -35 18
-39 -4 -3 -1 -6 5 -6 7 0 12 -6 12 -14 0 -8 6 -21 13 -28 6 -7 21 -29 31 -48
11 -19 24 -38 28 -41 5 -3 10 -12 12 -20 2 -13 33 -67 46 -79 7 -7 29 -42 37
-60 4 -8 12 -20 17 -27 30 -34 36 -43 31 -43 -4 0 0 -6 7 -14 20 -22 50 -64
50 -73 1 -4 8 -13 16 -19 10 -8 15 -26 14 -56 -2 -50 7 -62 54 -72 22 -5 40
-20 62 -54 17 -26 29 -49 27 -52 -2 -3 -88 -7 -192 -9 -103 -1 -208 -4 -233
-6 -25 -1 -73 -3 -107 -4 -49 -1 -66 -5 -82 -22 -36 -39 -7 -88 53 -90 17 0
39 -2 48 -4 10 -2 59 -6 110 -10 51 -3 113 -8 138 -10 46 -4 128 -10 310 -20
l105 -6 40 -43 c22 -24 60 -67 85 -96 25 -29 58 -66 73 -81 16 -16 26 -29 23
-29 -4 0 32 -38 79 -84 47 -46 85 -87 85 -90 0 -3 23 -27 51 -53 28 -26 90
-85 137 -131 47 -45 87 -82 90 -82 2 0 22 -18 43 -40 22 -22 41 -40 44 -40 3
0 21 -15 39 -33 19 -17 43 -39 54 -47 40 -31 107 -86 124 -102 10 -10 21 -18
25 -18 7 0 46 -32 105 -84 10 -9 20 -16 23 -16 5 0 37 -25 60 -47 8 -7 18 -13
23 -13 6 0 12 -4 14 -8 1 -4 20 -18 41 -31 20 -12 37 -27 37 -32 0 -5 7 -9 15
-9 8 0 15 -4 15 -10 0 -5 7 -10 15 -10 8 0 15 -4 15 -10 0 -5 7 -10 15 -10 9
0 18 -7 21 -15 4 -8 9 -13 14 -10 4 2 16 -5 28 -15 12 -11 26 -20 32 -20 5 0
10 -4 10 -10 0 -5 7 -10 15 -10 8 0 15 -4 15 -10 0 -5 5 -10 10 -10 12 0 122
-70 132 -85 4 -5 8 -7 8 -3 0 4 36 -15 81 -42 44 -28 85 -50 90 -50 5 0 9 -4
9 -8 0 -4 21 -17 46 -27 26 -11 52 -24 58 -30 6 -5 43 -26 81 -45 39 -19 73
-39 76 -43 3 -5 9 -8 13 -7 4 1 53 -20 109 -47 113 -55 199 -96 207 -98 7 -2
58 -23 100 -42 19 -8 49 -22 65 -31 17 -9 31 -15 33 -13 2 2 71 -22 155 -54
143 -53 165 -61 177 -63 3 -1 35 -12 72 -26 38 -13 68 -22 68 -20 0 2 17 -3
38 -11 32 -13 301 -89 357 -101 11 -3 40 -9 65 -14 25 -6 54 -12 65 -15 55
-13 85 -19 140 -29 17 -3 41 -8 55 -11 28 -6 192 -34 230 -40 14 -2 48 -6 75
-10 28 -3 64 -8 80 -11 56 -8 106 -13 178 -19 40 -4 83 -8 97 -11 152 -24 950
-24 1100 0 14 2 59 7 100 10 41 4 86 8 100 10 14 2 52 7 85 11 32 4 67 8 76
10 9 2 40 6 70 10 30 4 56 8 59 10 3 2 27 6 54 9 27 4 52 9 55 10 3 2 29 7 56
10 28 4 57 9 65 11 8 2 27 6 43 9 15 3 35 7 45 10 9 3 28 7 42 10 28 6 269 64
285 69 21 7 100 29 110 31 19 4 160 48 195 61 19 7 37 13 40 13 3 0 18 6 34
12 16 6 36 12 45 14 9 2 30 9 46 15 17 7 37 14 45 16 8 2 49 17 90 33 99 39
114 45 120 46 3 1 16 8 30 16 14 7 25 12 25 11 0 -3 40 13 95 38 19 8 37 16
40 16 22 5 414 198 510 251 36 20 81 45 100 56 19 11 53 30 75 44 22 13 47 27
55 31 8 4 20 11 25 15 28 23 135 87 135 80 0 -4 5 1 11 11 6 9 14 15 20 12 5
-4 9 -1 9 5 0 6 8 14 18 17 14 6 129 83 184 125 9 7 43 31 74 53 32 22 81 59
110 82 30 24 56 43 59 43 3 0 13 8 23 18 11 9 28 24 38 32 11 8 44 35 74 60
30 25 63 52 73 60 33 27 81 71 119 108 21 20 38 34 38 30 0 -4 102 96 228 222
221 224 312 319 312 328 0 3 10 14 23 26 12 11 29 30 37 42 8 12 32 41 52 65
57 66 71 83 98 120 14 18 34 43 45 54 11 12 20 23 20 25 1 8 89 125 98 128 4
2 7 8 7 14 0 8 43 71 60 88 3 3 10 12 15 21 22 35 115 175 125 186 5 7 10 15
10 18 0 8 74 119 85 127 5 4 6 8 1 8 -5 0 -2 7 5 16 14 17 31 45 48 79 6 11
24 43 40 70 17 28 40 70 52 95 12 25 28 53 37 63 8 9 12 17 8 17 -9 0 33 72
48 82 6 4 8 8 4 8 -4 0 7 28 24 62 18 35 33 69 34 77 2 8 8 17 14 21 7 4 11 9
10 11 -2 6 14 45 49 121 17 36 31 69 31 72 0 3 11 30 25 60 14 30 25 57 25 60
0 2 10 26 22 53 24 54 22 49 32 84 6 20 12 25 27 22 10 -3 19 -8 19 -12 0 -4
24 -24 53 -46 28 -21 64 -52 79 -67 15 -15 29 -28 32 -28 5 0 64 -52 131 -117
19 -17 36 -29 39 -25 3 3 6 -3 6 -13 0 -10 3 -16 6 -13 3 3 33 -23 67 -58 34
-35 68 -64 75 -64 6 0 12 -5 12 -12 0 -6 3 -8 7 -5 3 4 11 3 17 -2 40 -30 108
-16 156 34 19 19 30 35 24 35 -5 0 -4 4 2 8 7 4 27 39 45 77 32 69 32 73 32
210 0 188 -13 300 -63 550 -9 46 -35 140 -48 175 -3 8 -6 21 -8 29 -6 32 -49
147 -57 152 -5 3 -8 8 -7 10 5 10 -24 89 -33 89 -6 0 -8 3 -4 6 3 4 -6 30 -20
58 -15 28 -27 53 -28 56 -3 17 -68 140 -74 140 -4 0 -8 6 -8 13 0 14 -54 100
-66 105 -4 2 -5 8 -1 13 3 5 0 9 -5 9 -6 0 -11 5 -11 12 0 6 -7 19 -15 28 -9
10 -16 28 -17 41 -2 21 15 206 27 294 26 193 27 971 1 1175 -2 14 -7 57 -10
95 -4 39 -9 81 -11 95 -2 14 -6 45 -9 70 -10 80 -16 124 -21 150 -2 14 -7 41
-10 60 -14 87 -39 216 -67 339 -38 169 -34 155 -54 226 -9 33 -18 68 -20 78
-10 45 -13 54 -24 82 -6 17 -11 32 -11 35 3 14 -97 316 -154 465 -14 39 -28
75 -29 80 -1 6 -9 24 -16 40 -7 17 -18 44 -25 60 -19 44 -74 173 -97 225 -11
25 -35 75 -53 112 -19 36 -31 69 -28 72 4 3 2 6 -4 6 -10 0 -48 79 -43 89 1 2
-2 7 -7 10 -5 3 -31 47 -58 96 -28 50 -60 108 -72 130 -12 22 -28 51 -35 65
-7 14 -17 28 -23 32 -6 5 -6 8 0 8 6 0 5 4 -1 8 -11 7 -94 137 -94 148 0 2 -8
13 -17 24 -10 10 -27 36 -38 57 -11 21 -23 40 -26 43 -5 4 -61 84 -128 184 -8
11 -30 40 -48 63 -18 23 -33 46 -33 52 0 6 -4 11 -8 11 -5 0 -25 24 -45 53
-20 29 -45 61 -54 72 -10 11 -32 38 -48 60 -17 21 -41 51 -55 65 -14 14 -38
43 -55 65 -16 21 -42 49 -57 63 -15 14 -25 30 -21 36 3 6 3 8 -1 4 -4 -3 -24
12 -44 35 -20 23 -45 49 -54 58 -10 9 -18 19 -18 21 0 7 -281 288 -288 288 -3
0 -33 28 -67 63 -34 34 -81 78 -105 97 -23 19 -55 46 -70 60 -37 33 -103 87
-159 130 -25 19 -56 45 -68 58 -13 13 -23 21 -23 18 0 -5 -24 13 -54 39 -6 6
-33 26 -61 45 -27 19 -51 38 -53 43 -2 4 -8 7 -13 7 -8 0 -35 20 -64 47 -7 7
-15 9 -19 6 -3 -3 -8 2 -12 11 -3 9 -12 16 -19 16 -6 0 -20 9 -30 20 -10 11
-24 20 -32 20 -7 0 -13 5 -13 10 0 6 -7 10 -15 10 -8 0 -15 5 -15 10 0 6 -7
10 -15 10 -8 0 -15 5 -15 10 0 6 -6 10 -13 10 -8 0 -25 9 -38 20 -37 31 -44
35 -59 38 -8 2 -16 8 -18 13 -2 5 -10 9 -18 9 -8 0 -14 5 -14 10 0 6 -6 10
-13 10 -8 0 -24 9 -37 20 -13 11 -29 20 -37 20 -7 0 -13 5 -13 11 0 5 -4 8 -9
5 -5 -3 -14 1 -21 9 -7 8 -18 15 -25 15 -6 0 -25 11 -40 24 -16 14 -32 23 -37
20 -4 -3 -8 0 -8 6 0 6 -4 8 -10 5 -5 -3 -10 -1 -10 5 0 6 -4 9 -8 6 -5 -3
-18 3 -29 14 -12 10 -24 16 -27 13 -3 -4 -6 -1 -6 5 0 7 -3 12 -7 11 -16 -2
-53 14 -53 23 0 5 -4 6 -10 3 -5 -3 -10 -1 -10 4 0 6 -3 11 -7 10 -16 -2 -53
14 -53 23 0 5 -4 6 -10 3 -5 -3 -10 -1 -10 5 0 6 -4 9 -9 5 -5 -3 -16 1 -24 9
-8 8 -17 12 -21 9 -3 -4 -6 -1 -6 5 0 7 -6 12 -14 12 -7 0 -33 11 -57 23 -24
13 -47 25 -51 26 -4 1 -33 13 -63 26 -31 14 -60 25 -65 25 -6 0 -10 5 -10 10
0 6 -3 9 -7 9 -5 -1 -11 0 -15 1 -5 1 -11 3 -15 4 -5 1 -17 7 -28 13 -11 6
-24 12 -30 13 -11 3 -40 14 -82 32 -16 6 -31 11 -35 10 -5 -1 -8 2 -8 8 0 5
-7 7 -15 4 -8 -4 -15 -2 -15 3 0 5 -10 9 -22 10 -11 1 -24 7 -28 13 -4 7 -11
11 -16 10 -9 -1 -59 13 -66 20 -2 1 -11 3 -21 5 -10 2 -26 7 -35 11 -9 4 -20
8 -24 9 -5 2 -9 3 -10 5 -2 1 -11 3 -21 5 -10 2 -26 7 -35 11 -9 4 -20 8 -24
9 -5 2 -10 4 -13 5 -5 3 -6 3 -50 15 -16 4 -34 10 -40 14 -5 3 -21 7 -34 9
-14 2 -33 8 -44 14 -11 5 -34 12 -51 15 -17 3 -39 9 -48 14 -10 5 -18 7 -18 5
0 -3 -18 1 -40 9 -22 8 -40 12 -40 9 0 -2 -8 0 -19 5 -10 6 -33 13 -52 16 -19
3 -42 8 -51 11 -18 5 -41 11 -103 24 -22 5 -51 12 -65 15 -14 3 -41 8 -60 11
-19 3 -37 7 -40 9 -3 2 -26 6 -50 10 -56 8 -57 9 -31 31 11 10 17 22 14 27 -3
6 -1 7 4 4 6 -4 16 0 23 8 10 12 8 16 -13 24 -14 6 -34 10 -44 9 -16 -1 -52 4
-133 17 -14 3 -45 7 -70 10 -25 3 -56 7 -70 10 -14 3 -45 8 -70 11 -58 6 -92
12 -95 16 -4 4 -159 312 -160 318 -1 3 -12 28 -26 55 -41 86 -44 86 -88 -4z"/>
</g>
</svg>
